PathFileType	4	(X/Y/Z)	/Users/itak/Documents/Research/Walk-IL/dataset/trc/00169_00008.trc
DataRate	CameraRate	NumFrames	NumMarkers	Units	OrigDataRate	OrigDataStartFrame	OrigNumFrames
100.000000	100.000000	4	54	mm	100.000000	0	551
Frame#	Time	RPSI			LPSI			L3			STRN			T10			C7			CLAV			RBAK			LBAK			LSHO			LUPA			LAEL			LAOL			LWTS			LWPS			LFRA			LIFD			LHPS			LHTS			RSHO			RUPA			RAEL			RAOL			RWTS			RWPS			RFRA			RIFD			RHTS			RHPS			RBHD			LFHD			RFHD			LBHD			LHIP			RHIP			RASI			LASI			LKNE			LTHI			LANK			LTIP			LTOE			LMT1			LMT5			LHEE			RKNE			RTHI			RANK			RTIP			RTOE			RMT1			RMT5			RHEE			*53			
		X1	Y1	Z1	X2	Y2	Z2	X3	Y3	Z3	X4	Y4	Z4	X5	Y5	Z5	X6	Y6	Z6	X7	Y7	Z7	X8	Y8	Z8	X9	Y9	Z9	X10	Y10	Z10	X11	Y11	Z11	X12	Y12	Z12	X13	Y13	Z13	X14	Y14	Z14	X15	Y15	Z15	X16	Y16	Z16	X17	Y17	Z17	X18	Y18	Z18	X19	Y19	Z19	X20	Y20	Z20	X21	Y21	Z21	X22	Y22	Z22	X23	Y23	Z23	X24	Y24	Z24	X25	Y25	Z25	X26	Y26	Z26	X27	Y27	Z27	X28	Y28	Z28	X29	Y29	Z29	X30	Y30	Z30	X31	Y31	Z31	X32	Y32	Z32	X33	Y33	Z33	X34	Y34	Z34	X35	Y35	Z35	X36	Y36	Z36	X37	Y37	Z37	X38	Y38	Z38	X39	Y39	Z39	X40	Y40	Z40	X41	Y41	Z41	X42	Y42	Z42	X43	Y43	Z43	X44	Y44	Z44	X45	Y45	Z45	X46	Y46	Z46	X47	Y47	Z47	X48	Y48	Z48	X49	Y49	Z49	X50	Y50	Z50	X51	Y51	Z51	X52	Y52	Z52	X53	Y53	Z53	X54	Y54	Z54	

1	0	845.15234375	1052.990112304688	224.5782165527344	853.1638793945312	1048.572509765625	100.2915344238281	851.9974975585938	1087.140747070312	164.1190185546875	1103.090087890625	1296.815063476562	163.7548217773438	816.7164306640625	1243.537109375	154.1072845458984	874.9261474609375	1515.05126953125	139.9662322998047	1074.426147460938	1410.56689453125	150.8495483398438	805.4658203125	1342.928100585938	248.7253723144531	871.0055541992188	1487.806396484375	40.40613555908203	949.7957763671875	1474.011596679688	-36.3054084777832	919.2857055664062	1339.478393554688	-106.7675476074219	937.3605346679688	1122.206298828125	-121.5725555419922	885.2355346679688	1106.72216796875	-50.17987442016602	1055.463745117188	895.94140625	-86.04590606689453	973.8709716796875	869.7409057617188	-125.6887130737305	954.3666381835938	1011.775512695312	-133.3087615966797	1076.806274414062	711.1007690429688	-58.25601959228516	997.4830322265625	800.774658203125	-119.7203826904297	1068.6044921875	817.8816528320312	-104.6740493774414	933.5307006835938	1495.202758789062	324.3564758300781	911.138427734375	1428.700927734375	393.4633178710938	901.7959594726562	1139.996337890625	449.0090026855469	904.7122802734375	1129.854858398438	352.4427185058594	1053.303588867188	920.8484497070312	440.6963806152344	978.7494506835938	900.6748657226562	484.8863220214844	929.3258056640625	1069.267700195312	469.5213012695312	1074.260009765625	739.4734497070312	411.5479125976562	1084.966796875	829.6880493164062	451.9316711425781	1012.281616210938	819.0625	483.9818725585938	956.9173583984375	1689.278076171875	214.3324584960938	1120.990478515625	1704.807861328125	71.71943664550781	1128.732177734375	1711.164794921875	201.1311492919922	940.546630859375	1691.2080078125	77.86969757080078	958.2716064453125	987.4572143554688	-12.97734451293945	997.5826416015625	1014.314147949219	354.1000366210938	1079.541259765625	1040.609497070312	300.3653564453125	1082.068237304688	1025.426025390625	42.77199935913086	958.6375732421875	492.2700500488281	17.15553855895996	971.729248046875	634.12548828125	-8.282978057861328	848.5086059570312	40.79430389404297	4.424402713775635	905.5299072265625	273.3833923339844	-2.803307056427002	1068.706176757812	36.05136108398438	2.07661247253418	1025.249755859375	37.33921432495117	56.08001327514648	950.439697265625	31.82168197631836	-48.26499176025391	806.2998046875	38.50114440917969	79.74524688720703	986.69091796875	515.6541137695312	342.8900756835938	1043.801147460938	782.5166625976562	366.9116516113281	875.6795043945312	37.36600875854492	351.2785339355469	988.4332885742188	396.5541687011719	325.4520874023438	1099.858764648438	38.86064529418945	316.7438354492188	1042.429565429688	36.27302932739258	271.8486022949219	988.4525756835938	34.81210708618164	387.3550109863281	823.4165649414062	36.72775650024414	282.9395141601562	nan	nan	nan	
2	0.01	845.1394653320312	1052.989379882812	224.5799102783203	853.0607299804688	1048.568115234375	100.263916015625	851.9677734375	1087.141479492188	164.1299285888672	1103.060546875	1296.820922851562	163.8014373779297	816.6964111328125	1243.514404296875	154.1260375976562	874.8873901367188	1515.050903320312	140.0060424804688	1074.385620117188	1410.5576171875	150.8947601318359	805.432861328125	1342.913452148438	248.7652282714844	870.9642944335938	1487.802001953125	40.44509506225586	949.7614135742188	1474.019165039062	-36.25540924072266	919.24853515625	1339.47021484375	-106.7048873901367	937.3681640625	1122.220703125	-121.5389099121094	885.379638671875	1106.705932617188	-50.13550186157227	1055.5283203125	895.980224609375	-86.03199768066406	973.9345092773438	869.7449951171875	-125.6808395385742	954.3956298828125	1011.793701171875	-133.2831268310547	1076.95263671875	711.1515502929688	-58.27290725708008	997.584716796875	800.8333129882812	-119.7080154418945	1068.705200195312	817.8972778320312	-104.6649932861328	933.472900390625	1495.185791015625	324.4067687988281	911.093017578125	1428.6796875	393.5108337402344	901.7177124023438	1139.965942382812	449.0069885253906	904.5831909179688	1129.83837890625	352.4357299804688	1053.134887695312	920.7689208984375	440.6669006347656	978.572998046875	900.6283569335938	484.8629455566406	929.193603515625	1069.236083984375	469.5065002441406	1074.058837890625	739.388671875	411.5027465820312	1084.726440429688	829.5801391601562	451.8665161132812	1012.075378417969	818.9962158203125	483.9384460449219	956.9083251953125	1689.367431640625	214.2481384277344	1120.808715820312	1704.741577148438	71.45073699951172	1128.744995117188	1711.2919921875	200.8156127929688	940.4192504882812	1691.1357421875	77.82833862304688	958.2736206054688	987.4674682617188	-12.96694660186768	997.563232421875	1014.322387695312	354.1231384277344	1079.517578125	1040.613647460938	300.3828735351562	1082.038696289062	1025.430053710938	42.78484725952148	958.5304565429688	492.2794799804688	17.14382743835449	971.6840209960938	634.1531982421875	-8.265898704528809	848.5045166015625	40.78647232055664	4.41822338104248	905.4855346679688	273.3949584960938	-2.806376457214355	1068.69970703125	36.05451583862305	2.075648307800293	1025.248291015625	37.34114074707031	56.07592010498047	950.439208984375	31.81791114807129	-48.27078247070312	806.3016967773438	38.49160385131836	79.73602294921875	986.6427001953125	515.67724609375	342.9474792480469	1043.844604492188	782.5403442382812	366.9278259277344	875.6793823242188	37.36462020874023	351.2953491210938	988.4055786132812	396.5592041015625	325.4729919433594	1099.859008789062	38.8599967956543	316.7445983886719	1042.427490234375	36.277099609375	271.8503723144531	988.45166015625	34.80636978149414	387.3673095703125	823.4136352539062	36.72005081176758	282.9444580078125	nan	nan	nan	
3	0.02	845.1159057617188	1052.989013671875	224.5832366943359	852.9156494140625	1048.5615234375	100.2254104614258	851.931640625	1087.1416015625	164.1435852050781	1103.02392578125	1296.828369140625	163.8574981689453	816.669677734375	1243.487182617188	154.1515350341797	874.8378295898438	1515.050903320312	140.0540161132812	1074.33642578125	1410.546752929688	150.9495849609375	805.3935546875	1342.896362304688	248.8114013671875	870.9130249023438	1487.79150390625	40.48832702636719	949.7197875976562	1474.0234375	-36.1932487487793	919.2017211914062	1339.456298828125	-106.6303405761719	937.3792724609375	1122.23291015625	-121.4963684082031	885.549072265625	1106.685913085938	-50.07975387573242	1055.610107421875	896.0282592773438	-86.0191650390625	974.0173950195312	869.7481079101562	-125.6646270751953	954.4306640625	1011.812072753906	-133.25048828125	1077.147094726562	711.2059326171875	-58.28500747680664	997.71875	800.8993530273438	-119.6874160766602	1068.82861328125	817.919921875	-104.6543807983398	933.4009399414062	1495.168212890625	324.4661254882812	911.0350341796875	1428.657104492188	393.5670471191406	901.6154174804688	1139.932739257812	449.0006103515625	904.4267578125	1129.823486328125	352.4229736328125	1052.914916992188	920.6724243164062	440.6317443847656	978.343017578125	900.57177734375	484.8323364257812	929.0271606445312	1069.19970703125	469.4871215820312	1073.803466796875	739.2849731445312	411.4492492675781	1084.419921875	829.4459838867188	451.79150390625	1011.801940917969	818.9155883789062	483.8846130371094	956.8956298828125	1689.470825195312	214.1447143554688	1120.578491210938	1704.663696289062	71.12357330322266	1128.744750976562	1711.435546875	200.4301452636719	940.2543334960938	1691.048828125	77.77353668212891	958.280029296875	987.4801635742188	-12.94973278045654	997.53369140625	1014.33154296875	354.1483459472656	1079.4833984375	1040.61767578125	300.404296875	1082.000854492188	1025.434692382812	42.80160903930664	958.4011840820312	492.2909545898438	17.12994766235352	971.631103515625	634.1799926757812	-8.247725486755371	848.5008544921875	40.77690124511719	4.410329818725586	905.432373046875	273.4070129394531	-2.811734914779663	1068.691162109375	36.05794143676758	2.074091196060181	1025.246337890625	37.34373092651367	56.06982803344727	950.4383544921875	31.81305313110352	-48.27824401855469	806.30712890625	38.48435592651367	79.72604370117188	986.5799560546875	515.7081909179688	343.0172729492188	1043.884399414062	782.5681762695312	366.9485168457031	875.6800537109375	37.36254119873047	351.3152160644531	988.3689575195312	396.5662841796875	325.4989624023438	1099.859008789062	38.85933303833008	316.7462158203125	1042.42431640625	36.28358459472656	271.8529357910156	988.4502563476562	34.79950332641602	387.3806457519531	823.4105224609375	36.71252822875977	282.9516296386719	nan	nan	nan	
4	0.03	845.079345703125	1052.988525390625	224.5888824462891	852.737548828125	1048.553955078125	100.1787948608398	851.8900146484375	1087.140625	164.1592559814453	1102.981811523438	1296.837768554688	163.9196166992188	816.6353149414062	1243.457153320312	154.1832427978516	874.779296875	1515.0517578125	140.1069641113281	1074.28125	1410.535522460938	151.0099639892578	805.3499145507812	1342.878295898438	248.8602294921875	870.8531494140625	1487.772705078125	40.53202438354492	949.6732788085938	1474.021728515625	-36.12188720703125	919.1477661132812	1339.43603515625	-106.5491714477539	937.3937377929688	1122.240844726562	-121.4467239379883	885.7278442382812	1106.664428710938	-50.01556015014648	1055.70556640625	896.082763671875	-86.00917816162109	974.11865234375	869.749267578125	-125.6379928588867	954.4702758789062	1011.828063964844	-133.2119903564453	1077.384521484375	711.2583618164062	-58.28762817382812	997.8828735351562	800.9659423828125	-119.6567764282227	1068.968627929688	817.9506225585938	-104.6422424316406	933.3178100585938	1495.15234375	324.5300903320312	910.9663696289062	1428.636108398438	393.6279296875	901.4907836914062	1139.900634765625	448.988525390625	904.2512817382812	1129.813842773438	352.4030456542969	1052.649536132812	920.5646362304688	440.5934448242188	978.0659790039062	900.5087280273438	484.79541015625	928.83447265625	1069.161987304688	469.4636840820312	1073.501831054688	739.1676025390625	411.3914184570312	1084.059692382812	829.2926635742188	451.7134399414062	1011.464782714844	818.8248901367188	483.8228759765625	956.8792114257812	1689.579467773438	214.0286254882812	1120.31005859375	1704.580200195312	70.75789642333984	1128.725341796875	1711.582885742188	199.9960479736328	940.0560302734375	1690.952880859375	77.7069091796875	958.2919921875	987.4943237304688	-12.92446804046631	997.4930419921875	1014.341125488281	354.1733703613281	1079.437744140625	1040.621459960938	300.4287109375	1081.955810546875	1025.43994140625	42.82199478149414	958.2576904296875	492.3040161132812	17.11496734619141	971.5745849609375	634.2022705078125	-8.230895042419434	848.4979248046875	40.76604080200195	4.401394367218018	905.3732299804688	273.4185485839844	-2.819495916366577	1068.680908203125	36.06131744384766	2.07171630859375	1025.24365234375	37.34680557250977	56.06163024902344	950.43701171875	31.80736923217773	-48.28691101074219	806.3173217773438	38.48112487792969	79.71632385253906	986.5042114257812	515.74658203125	343.0946350097656	1043.908813476562	782.59716796875	366.9725952148438	875.6815795898438	37.35967254638672	351.336181640625	988.3242797851562	396.5760803222656	325.5285949707031	1099.85888671875	38.8588752746582	316.7490539550781	1042.419921875	36.29244613647461	271.8561401367188	988.4481811523438	34.79180908203125	387.3936157226562	823.4074096679688	36.70594787597656	282.9609680175781	nan	nan	nan	
